<svg width="469" height="532" viewBox="0 0 469 532" fill="none" xmlns="http://www.w3.org/2000/svg">
<g clip-path="url(#clip0)">
<path d="M244.029 434.08C243.82 383.666 243.715 333.251 243.506 282.837C243.506 278.792 243.611 274.539 245.807 271.115C247.585 268.522 250.41 266.862 253.129 265.306C297.165 239.996 341.306 214.892 385.656 190.1C385.865 210.017 386.179 230.037 386.493 249.954C386.597 252.962 386.597 256.074 385.342 258.771C383.564 262.921 379.275 265.306 375.3 267.485C358.878 276.302 342.456 285.119 326.034 293.937C319.759 297.36 313.273 300.887 308.985 306.488C304.696 312.194 303.232 320.596 307.416 326.198C337.854 309.6 368.188 292.588 398.208 275.161C400.718 273.813 403.228 272.257 404.588 269.767C405.948 267.381 405.948 264.684 405.948 261.987C405.948 233.357 405.948 204.726 405.843 176.096C405.843 173.192 405.843 170.183 404.274 167.798C403.019 165.827 400.823 164.582 398.835 163.441C323.419 120.288 248.108 77.135 172.693 33.9822C190.161 23.7126 207.629 13.4431 225.097 3.17351C227.816 1.61752 230.536 0.0615234 233.569 0.0615234C236.602 0.0615234 239.322 1.61752 241.937 3.06978C314.529 44.5629 387.015 86.0561 459.607 127.445C462.431 129.105 465.465 130.972 466.929 133.877C468.08 136.159 468.08 138.752 468.08 141.242C468.289 191.967 468.603 242.796 468.812 293.626C468.812 297.256 468.812 300.991 467.138 304.103C465.151 307.837 461.281 310.223 457.515 312.297C386.388 352.961 315.156 393.52 244.029 434.08Z" fill="black"/>
<path d="M224.051 279.621C223.841 331.073 223.737 382.42 223.528 433.872C206.478 424.329 189.428 414.681 172.483 405.138C169.241 403.374 165.894 401.404 164.22 398.188C162.756 395.387 162.756 392.068 162.86 388.956C163.174 369.039 163.488 349.226 163.802 329.413C163.906 322.255 163.906 314.787 160.873 308.355C157.735 301.924 150.518 296.841 143.509 298.604C143.3 332.836 143.196 367.068 143.3 401.3C143.3 403.893 143.3 406.59 144.555 408.769C145.915 411.362 148.635 413.022 151.145 414.474C176.249 428.789 201.248 443.208 226.352 457.523C228.653 458.872 231.059 460.22 233.674 460.324C236.498 460.324 239.113 458.872 241.519 457.523C316.83 414.474 392.141 371.529 467.452 328.479C469.021 347.151 468.916 365.927 468.812 384.703C468.812 389.474 468.707 394.557 465.987 398.499C463.895 401.507 460.548 403.478 457.41 405.345C385.551 446.216 313.692 487.191 241.832 528.061C239.217 529.514 236.498 531.07 233.569 530.966C230.745 530.966 228.234 529.514 225.829 528.165C180.537 502.128 135.246 476.195 89.9549 450.262C87.34 448.809 84.725 447.253 83.2606 444.764C81.587 442.067 81.4824 438.747 81.4824 435.532C81.587 353.998 81.587 272.464 81.6916 190.93C127.506 214.892 172.693 240.203 217.042 266.862C219.134 268.211 221.331 269.559 222.586 271.634C224.051 274.02 224.051 276.924 224.051 279.621Z" fill="black"/>
<path d="M1.15059 396.943C0 394.454 0 391.653 0 388.956C0 306.799 0 224.747 0 142.59C0 139.686 0 136.47 1.35978 133.773C3.13796 130.246 6.79892 128.068 10.2507 126.097C55.0189 100.475 99.7872 74.8528 144.555 49.3345C146.857 47.986 149.262 46.6375 151.877 46.5337C154.911 46.43 157.63 47.986 160.245 49.4382C232.628 89.8941 304.592 131.076 376.242 172.984C331.683 198.71 287.019 224.436 242.46 250.161C239.74 251.717 236.916 253.273 233.883 253.17C231.372 253.066 229.071 251.717 226.875 250.472C183.675 225.888 140.372 201.199 97.1722 176.511C95.7079 175.681 94.1389 174.644 94.0343 173.088C93.9297 171.117 95.7079 169.872 97.3814 168.938C113.385 159.81 129.493 150.785 145.497 141.657C148.007 140.204 150.622 138.752 153.446 138.752C156.898 138.648 159.931 140.516 162.86 142.279C176.876 150.993 190.997 159.706 205.118 168.42C212.545 173.088 220.18 177.756 228.757 179.519C237.335 181.386 247.271 179.623 253.129 173.192C223.423 155.764 193.717 138.648 163.906 121.636C160.454 119.665 156.794 117.591 152.714 117.694C149.262 117.902 146.02 119.665 142.986 121.429C119.243 134.914 95.6033 148.399 71.9639 161.885C69.349 163.337 66.734 164.789 64.9558 167.175C62.1317 170.806 62.0271 175.889 62.0271 180.453C61.9225 264.373 61.8179 348.189 61.6087 432.109C43.4085 423.914 25.8359 414.578 8.89089 404.101C5.85753 402.234 2.71957 400.159 1.15059 396.943Z" fill="black"/>
</g>
<defs>
<clipPath id="clip0">
<rect width="469" height="530.994" fill="white" transform="translate(0 0.0615234)"/>
</clipPath>
</defs>
</svg>
